<svg width="184" height="167" viewBox="0 0 184 167" fill="none" xmlns="http://www.w3.org/2000/svg">
<g id="Group 11">
<rect id="Rectangle 169" x="6.0415" width="104.358" height="63.5263" rx="21" fill="#12C2E9"/>
<rect id="Rectangle 170" x="79.6421" y="53.1543" width="104.358" height="63.5263" rx="21" fill="#C471ED"/>
<rect id="Rectangle 171" y="103.069" width="104.358" height="63.5263" rx="21" fill="#F64F59"/>
<path id="Arrow 1" d="M116.371 139.647L115.981 138.678L116.371 139.647ZM104.822 147.44L116.761 140.616L115.981 138.678L104.043 145.501L104.822 147.44ZM116.761 140.616C125.654 135.533 133.142 127.539 138.317 117.603L136.761 116.493C131.773 126.072 124.554 133.778 115.981 138.678L116.761 140.616Z" fill="white"/>
<path id="Arrow 2" d="M36.7115 77.8206L36.086 78.5326L36.7115 77.8206ZM20.9238 63.703L36.086 78.5326L37.337 77.1086L22.1748 62.279L20.9238 63.703ZM36.086 78.5326C48.1607 90.3425 64.1742 96.2667 79.5607 94.616L79.1607 92.5812C64.3585 94.1692 48.9531 88.47 37.337 77.1086L36.086 78.5326Z" fill="white"/>
<path id="Arrow 3" d="M143.678 50.4554L144.438 49.8948L143.678 50.4554ZM118.427 28.5513L118.193 29.5682L118.427 28.5513ZM110.078 24.7172C109.637 24.9862 109.489 25.63 109.748 26.1553L113.966 34.7142C114.225 35.2394 114.793 35.4471 115.234 35.1781C115.675 34.909 115.823 34.2652 115.564 33.74L111.815 26.132L118.208 22.235C118.649 21.966 118.797 21.3221 118.538 20.7969C118.279 20.2717 117.712 20.064 117.27 20.333L110.078 24.7172ZM146.164 52.856L144.438 49.8948L142.918 51.0159L144.645 53.9771L146.164 52.856ZM118.661 27.5343L110.78 24.6512L110.313 26.685L118.193 29.5682L118.661 27.5343ZM144.438 49.8948C138.255 39.2876 129.115 31.3592 118.661 27.5343L118.193 29.5682C128.221 33.2369 136.988 40.8416 142.918 51.0159L144.438 49.8948Z" fill="white"/>
</g>
</svg>
