<svg width="174" height="162" viewBox="0 0 174 162" fill="none" xmlns="http://www.w3.org/2000/svg">
<g id="SVGRepo_iconCarrier">
<g id="Group">
<path id="Vector" d="M29.8539 88.1591C29.8539 96.9182 33.2989 105.788 39.3053 112.496C45.6216 119.549 53.8673 123.434 62.5227 123.434C71.1772 123.434 79.4126 119.551 85.7127 112.502C91.6993 105.803 95.1328 96.9358 95.1328 88.1745V88.1295C95.1328 86.739 93.9155 85.6115 92.414 85.6115C90.9126 85.6115 89.6953 86.739 89.6953 88.1295V88.1745C89.6953 95.7832 86.7169 103.479 81.5237 109.291C76.2759 115.163 69.5276 118.398 62.5227 118.398C55.5141 118.398 48.755 115.16 43.4905 109.281C38.2796 103.462 35.2914 95.7634 35.2914 88.1591V85.1391C35.2914 78.9099 39.8089 70.4416 41.5218 67.4543C52.4352 66.2951 62.9591 66.7238 72.821 68.7398C73.0185 68.7801 73.2156 68.7993 73.4096 68.7993C74.6572 68.7993 75.7817 67.9985 76.0618 66.8236C76.3853 65.4658 75.4592 64.1218 73.9928 63.8222C63.1746 61.6107 51.6341 61.1953 39.6886 62.5833C38.7955 62.6226 37.9418 63.0668 37.4616 63.8369C37.2876 64.1158 34.9216 67.9419 32.8737 72.8353C31.9443 68.172 31.0923 62.9276 31.0923 59.3704C31.0923 50.5612 37.114 46.618 43.082 46.618C43.2791 46.618 43.4708 46.5976 43.6556 46.5607C43.8429 46.5979 44.0339 46.6183 44.2255 46.6183C44.7985 46.6183 45.3766 46.4512 45.868 46.1053C51.8299 41.9113 59.7948 42.4577 67.514 43.6729C68.9944 43.9062 70.3986 42.9836 70.6501 41.6126C70.9019 40.2415 69.9058 38.9413 68.4255 38.7081C60.2019 37.4135 50.8382 36.7689 43.326 41.5934C43.2454 41.5868 43.1646 41.5821 43.082 41.5821C37.9214 41.5821 33.3397 43.4919 30.1805 46.9598C27.2622 50.1633 25.6548 54.5708 25.6548 59.3704C25.6548 67.2312 29.2653 81.7584 29.8532 84.0721V88.1591H29.8539Z" fill="#C471ED"/>
<path id="Vector_2" d="M109.346 129.008C109.287 128.993 109.228 128.979 109.169 128.968L92.9931 125.834L88.7169 119.828C88.6866 119.786 88.655 119.744 88.6221 119.704C87.8445 118.743 86.6608 118.11 85.3742 117.965C84.0889 117.821 82.7747 118.174 81.7715 118.934C81.7542 118.947 81.7365 118.961 81.7195 118.974L62.4864 134.308L43.2536 118.974C43.2363 118.961 43.2189 118.947 43.2016 118.934C42.1984 118.174 40.8859 117.821 39.5989 117.965C38.3123 118.11 37.1286 118.744 36.351 119.704C36.3181 119.744 36.2865 119.786 36.2562 119.828L31.98 125.834L15.8044 128.968C15.745 128.979 15.6858 128.993 15.6274 129.008C10.9239 130.228 6.92262 132.929 4.05536 136.818C1.44026 140.366 0 144.649 0 148.879V153.613C0 157.766 3.99316 161.145 8.90153 161.145H56.2961C56.2995 161.145 56.3029 161.145 56.3063 161.145C56.3101 161.145 56.3138 161.145 56.3175 161.145H68.6549C68.6586 161.145 68.6624 161.145 68.6661 161.145C68.6695 161.145 68.6729 161.145 68.6763 161.145H116.071C120.98 161.145 124.973 157.766 124.973 153.613V148.879C124.973 144.649 123.533 140.366 120.917 136.818C118.051 132.929 114.049 130.228 109.346 129.008ZM84.6585 123.276L88.0335 128.016L74.525 145.219L66.4806 137.769L84.6585 123.276ZM60.7032 151.093H64.2702L65.3533 156.109H59.6202L60.7032 151.093ZM65.2055 144.678C65.2055 145.507 64.66 146.057 64.2991 146.057H60.674C60.3131 146.057 59.7676 145.507 59.7676 144.678V143.709L62.4864 141.191L65.2051 143.709V144.678H65.2055ZM40.315 123.276L58.4925 137.768L50.4484 145.218L36.94 128.016L40.315 123.276ZM5.4375 153.613V148.879C5.4375 142.939 9.41231 135.895 17.0109 133.879L32.469 130.884L47.9224 150.564C48.39 151.16 49.1156 151.535 49.9084 151.593C49.9795 151.599 50.0505 151.601 50.1212 151.601C50.8393 151.601 51.5315 151.337 52.0433 150.863L55.2134 147.927C55.3571 148.173 55.5152 148.409 55.6892 148.633L54.0749 156.109H8.90153C7.02389 156.109 5.4375 154.966 5.4375 153.613ZM119.536 153.613C119.536 154.966 117.95 156.109 116.072 156.109H70.8982L69.2839 148.633C69.4579 148.41 69.616 148.174 69.7597 147.927L72.9301 150.864C73.4419 151.338 74.1342 151.601 74.8523 151.601C74.923 151.601 74.994 151.599 75.065 151.594C75.8579 151.536 76.5835 151.16 77.0511 150.564L92.5044 130.885L107.963 133.879C115.561 135.895 119.536 142.939 119.536 148.879V153.613Z" fill="#C471ED"/>
<path id="Vector_3" d="M125.063 0C98.0782 0 76.125 20.3321 76.125 45.3237C76.125 70.3153 98.0782 90.6474 125.063 90.6474C152.047 90.6474 174 70.3153 174 45.3237C174 20.3321 152.047 0 125.063 0ZM125.063 85.6114C101.076 85.6114 81.5625 67.5383 81.5625 45.3237C81.5625 23.1091 101.076 5.03597 125.063 5.03597C149.049 5.03597 168.563 23.1091 168.563 45.3237C168.563 67.5383 149.049 85.6114 125.063 85.6114Z" fill="#12C2E9"/>
<path id="Vector_4" d="M154.955 24.9311C154.951 24.8952 154.944 24.8603 154.938 24.825C154.931 24.7791 154.926 24.7331 154.916 24.6875C154.907 24.6459 154.895 24.6056 154.883 24.565C154.873 24.526 154.864 24.487 154.851 24.4486C154.838 24.4086 154.822 24.3699 154.807 24.3305C154.792 24.2925 154.778 24.2537 154.761 24.2163C154.745 24.1791 154.725 24.1439 154.707 24.1077C154.688 24.0693 154.669 24.0306 154.648 23.9931C154.627 23.9579 154.604 23.9245 154.582 23.8902C154.558 23.854 154.536 23.8175 154.511 23.7822C154.483 23.7438 154.452 23.7076 154.422 23.6705C154.399 23.6419 154.377 23.6123 154.353 23.5843C154.239 23.4559 154.112 23.3378 153.973 23.2324C153.942 23.2094 153.91 23.1896 153.879 23.1679C153.84 23.1402 153.8 23.1115 153.759 23.0857C153.721 23.0621 153.681 23.0416 153.643 23.0202C153.606 22.9998 153.569 22.9781 153.531 22.9592C153.491 22.9394 153.449 22.922 153.408 22.9041C153.369 22.8871 153.33 22.8688 153.29 22.8534C153.249 22.838 153.208 22.8254 153.167 22.8116C153.124 22.7974 153.083 22.7823 153.039 22.7703C152.998 22.7587 152.955 22.7502 152.913 22.7404C152.869 22.7304 152.826 22.7187 152.781 22.7105C152.732 22.7014 152.683 22.696 152.633 22.6898C152.595 22.6847 152.557 22.6778 152.518 22.6743C152.429 22.6661 152.339 22.6617 152.249 22.6617H135.937C134.436 22.6617 133.219 23.7892 133.219 25.1797C133.219 26.5703 134.436 27.6977 135.937 27.6977H145.687L125.062 46.7988L118.829 41.0251C117.767 40.0418 116.046 40.0418 114.984 41.0251L93.234 61.169C92.172 62.1525 92.172 63.7467 93.234 64.73C93.7648 65.2216 94.4605 65.4675 95.1565 65.4675C95.8525 65.4675 96.5482 65.2216 97.079 64.73L116.906 46.3667L123.14 52.1404C123.538 52.509 124.029 52.7394 124.543 52.8316C124.714 52.8624 124.888 52.8775 125.062 52.8775C125.236 52.8775 125.41 52.8621 125.582 52.8316C126.096 52.7394 126.587 52.509 126.985 52.1404L126.986 52.1395L149.531 31.2588V40.2879C149.531 41.6785 150.748 42.8059 152.25 42.8059C153.751 42.8059 154.969 41.6785 154.969 40.2879V25.1807C154.969 25.0976 154.964 25.0142 154.955 24.9311Z" fill="#F64F59"/>
</g>
</g>
</svg>
