<svg width="200" height="200" viewBox="0 0 200 200" fill="none" xmlns="http://www.w3.org/2000/svg">
<g id="Capa_1" clip-path="url(#clip0_445_1336)">
<g id="SVGRepo_iconCarrier">
<g id="Group">
<path id="Vector" d="M181.586 31.3673H18.4144C8.26115 31.3673 0 39.6285 0 49.7817V150.218C0 160.371 8.26115 168.633 18.4144 168.633H181.586C191.739 168.633 200 160.371 200 150.218V49.7817C200 39.6277 191.739 31.3673 181.586 31.3673ZM188.491 150.218C188.491 154.025 185.394 157.124 181.586 157.124H18.4144C14.6064 157.124 11.509 154.025 11.509 150.218V49.7817C11.509 45.9745 14.6064 42.8763 18.4144 42.8763H181.586C185.394 42.8763 188.491 45.9745 188.491 49.7817V150.218Z" fill="#12C2E9" stroke="#12C2E9" stroke-width="0.767265"/>
<path id="Vector_2" d="M165.76 64.2224H112.87C110.327 64.2224 108.267 66.2841 108.267 68.826C108.267 71.368 110.327 73.4296 112.87 73.4296H165.76C168.303 73.4296 170.364 71.368 170.364 68.826C170.364 66.2841 168.303 64.2224 165.76 64.2224Z" fill="#F64F59" stroke="#F64F59" stroke-width="0.767265"/>
<path id="Vector_3" d="M165.76 126.57H112.87C110.327 126.57 108.267 128.631 108.267 131.174C108.267 133.716 110.327 135.777 112.87 135.777H165.76C168.303 135.777 170.364 133.716 170.364 131.174C170.364 128.631 168.303 126.57 165.76 126.57Z" fill="#F64F59" stroke="#F64F59" stroke-width="0.767265"/>
<path id="Vector_4" d="M165.76 90.8527H133.751C131.209 90.8527 129.147 92.9143 129.147 95.4563C129.147 97.9982 131.209 100.06 133.751 100.06H165.76C168.303 100.06 170.363 97.9982 170.363 95.4563C170.363 92.9143 168.303 90.8527 165.76 90.8527Z" fill="#F64F59" stroke="#F64F59" stroke-width="0.767265"/>
<path id="Vector_5" d="M165.76 108.711H133.751C131.209 108.711 129.147 110.772 129.147 113.314C129.147 115.857 131.209 117.918 133.751 117.918H165.76C168.303 117.918 170.363 115.857 170.363 113.314C170.363 110.772 168.303 108.711 165.76 108.711Z" fill="#F64F59" stroke="#F64F59" stroke-width="0.767265"/>
<path id="Vector_6" d="M65.3426 102.151C78.3892 102.151 89.0036 91.5325 89.0036 78.4813C89.0036 65.4293 78.3892 54.8112 65.3426 54.8112C52.2922 54.8112 41.6748 65.4293 41.6748 78.4813C41.6748 91.5325 52.2922 102.151 65.3426 102.151ZM65.3426 66.3209C72.0432 66.3209 77.4946 71.7762 77.4946 78.4821C77.4946 85.1872 72.0439 90.6425 65.3426 90.6425C58.6383 90.6425 53.1838 85.1872 53.1838 78.4821C53.1838 71.7762 58.6383 66.3209 65.3426 66.3209Z" fill="#C471ED" stroke="#C471ED" stroke-width="0.767265"/>
<path id="Vector_7" d="M74.4991 106.404H56.3287C43.5982 106.404 33.2417 116.76 33.2417 129.49V139.434C33.2417 142.612 35.8174 145.189 38.9962 145.189C42.175 145.189 44.7507 142.612 44.7507 139.434V129.49C44.7507 123.107 49.9451 117.913 56.3287 117.913H74.4991C80.8827 117.913 86.0771 123.106 86.0771 129.49V139.434C86.0771 142.612 88.6528 145.189 91.8316 145.189C95.0104 145.189 97.5861 142.612 97.5861 139.434V129.49C97.5861 116.76 87.2288 106.404 74.4991 106.404Z" fill="#C471ED" stroke="#C471ED" stroke-width="0.767265"/>
</g>
</g>
</g>
<defs>
<clipPath id="clip0_445_1336">
<rect width="200" height="200" fill="white"/>
</clipPath>
</defs>
</svg>
